<svg viewBox="0 0 130 15" fill="currentColor" xmlns="http://www.w3.org/2000/svg">
<path d="M13.0895 5.29102H9.97867C9.92185 4.88855 9.80585 4.53107 9.63066 4.21857C9.45547 3.90134 9.23057 3.63145 8.95594 3.40891C8.68132 3.18637 8.36409 3.01592 8.00424 2.89755C7.64913 2.77918 7.26324 2.71999 6.84657 2.71999C6.09373 2.71999 5.43795 2.90702 4.87924 3.28107C4.32053 3.65039 3.88729 4.19016 3.57952 4.90039C3.27176 5.60588 3.11788 6.46289 3.11788 7.47141C3.11788 8.50834 3.27176 9.37956 3.57952 10.085C3.89202 10.7905 4.32763 11.3232 4.88634 11.6831C5.44505 12.0429 6.09136 12.2228 6.82526 12.2228C7.23719 12.2228 7.61835 12.1684 7.96873 12.0595C8.32384 11.9506 8.63871 11.792 8.91333 11.5836C9.18795 11.3706 9.41522 11.1125 9.59515 10.8095C9.77981 10.5065 9.90765 10.1608 9.97867 9.77255L13.0895 9.78675C13.009 10.4544 12.8077 11.0983 12.4858 11.7186C12.1685 12.3341 11.74 12.8857 11.2003 13.3734C10.6652 13.8564 10.026 14.2399 9.28265 14.524C8.54401 14.8033 7.70831 14.943 6.77555 14.943C5.4782 14.943 4.31816 14.6494 3.29543 14.0623C2.27744 13.4752 1.47252 12.6253 0.88066 11.5126C0.293538 10.3999 -2.21878e-05 9.05285 -2.21878e-05 7.47141C-2.21878e-05 5.88524 0.298273 4.53581 0.894864 3.42312C1.49146 2.31043 2.30111 1.46289 3.32384 0.880504C4.34657 0.293383 5.49714 -0.000178099 6.77555 -0.000178099C7.61835 -0.000178099 8.3996 0.118193 9.1193 0.354936C9.84373 0.591678 10.4853 0.937322 11.044 1.39187C11.6027 1.84168 12.0573 2.39329 12.4076 3.0467C12.7628 3.70011 12.99 4.44821 13.0895 5.29102ZM28.6612 7.47141C28.6612 9.05759 28.3605 10.407 27.7592 11.5197C27.1626 12.6324 26.3482 13.4823 25.316 14.0694C24.2886 14.6518 23.1333 14.943 21.8501 14.943C20.5575 14.943 19.3975 14.6494 18.37 14.0623C17.3425 13.4752 16.5305 12.6253 15.9339 11.5126C15.3373 10.3999 15.039 9.05285 15.039 7.47141C15.039 5.88524 15.3373 4.53581 15.9339 3.42312C16.5305 2.31043 17.3425 1.46289 18.37 0.880504C19.3975 0.293383 20.5575 -0.000178099 21.8501 -0.000178099C23.1333 -0.000178099 24.2886 0.293383 25.316 0.880504C26.3482 1.46289 27.1626 2.31043 27.7592 3.42312C28.3605 4.53581 28.6612 5.88524 28.6612 7.47141ZM25.5433 7.47141C25.5433 6.44395 25.3894 5.57747 25.0817 4.87198C24.7786 4.16649 24.3501 3.63145 23.7961 3.26687C23.2422 2.90228 22.5935 2.71999 21.8501 2.71999C21.1067 2.71999 20.4581 2.90228 19.9041 3.26687C19.3501 3.63145 18.9192 4.16649 18.6115 4.87198C18.3085 5.57747 18.1569 6.44395 18.1569 7.47141C18.1569 8.49888 18.3085 9.36535 18.6115 10.0708C18.9192 10.7763 19.3501 11.3114 19.9041 11.676C20.4581 12.0405 21.1067 12.2228 21.8501 12.2228C22.5935 12.2228 23.2422 12.0405 23.7961 11.676C24.3501 11.3114 24.7786 10.7763 25.0817 10.0708C25.3894 9.36535 25.5433 8.49888 25.5433 7.47141ZM33.6665 14.7441L29.5046 0.198686H32.864L35.2716 10.3052H35.3924L38.0486 0.198686H40.925L43.5742 10.3265H43.702L46.1097 0.198686H49.4691L45.3072 14.7441H42.31L39.5401 5.2342H39.4265L36.6637 14.7441H33.6665ZM63.6612 7.47141C63.6612 9.05759 63.3605 10.407 62.7592 11.5197C62.1626 12.6324 61.3482 13.4823 60.316 14.0694C59.2886 14.6518 58.1333 14.943 56.8501 14.943C55.5575 14.943 54.3975 14.6494 53.37 14.0623C52.3425 13.4752 51.5305 12.6253 50.9339 11.5126C50.3373 10.3999 50.039 9.05285 50.039 7.47141C50.039 5.88524 50.3373 4.53581 50.9339 3.42312C51.5305 2.31043 52.3425 1.46289 53.37 0.880504C54.3975 0.293383 55.5575 -0.000178099 56.8501 -0.000178099C58.1333 -0.000178099 59.2886 0.293383 60.316 0.880504C61.3482 1.46289 62.1626 2.31043 62.7592 3.42312C63.3605 4.53581 63.6612 5.88524 63.6612 7.47141ZM60.5433 7.47141C60.5433 6.44395 60.3894 5.57747 60.0817 4.87198C59.7786 4.16649 59.3501 3.63145 58.7961 3.26687C58.2422 2.90228 57.5935 2.71999 56.8501 2.71999C56.1067 2.71999 55.4581 2.90228 54.9041 3.26687C54.3501 3.63145 53.9192 4.16649 53.6115 4.87198C53.3085 5.57747 53.1569 6.44395 53.1569 7.47141C53.1569 8.49888 53.3085 9.36535 53.6115 10.0708C53.9192 10.7763 54.3501 11.3114 54.9041 11.676C55.4581 12.0405 56.1067 12.2228 56.8501 12.2228C57.5935 12.2228 58.2422 12.0405 58.7961 11.676C59.3501 11.3114 59.7786 10.7763 60.0817 10.0708C60.3894 9.36535 60.5433 8.49888 60.5433 7.47141ZM65.9393 14.7441V0.198686H71.6779C72.7764 0.198686 73.7139 0.395182 74.4904 0.788174C75.2716 1.17643 75.8659 1.72804 76.2731 2.443C76.685 3.15323 76.891 3.98893 76.891 4.95011C76.891 5.91602 76.6826 6.74698 76.266 7.443C75.8493 8.13429 75.2456 8.66459 74.4549 9.03391C73.6689 9.40323 72.7172 9.58789 71.5998 9.58789H67.7574V7.1163H71.1026C71.6897 7.1163 72.1774 7.03581 72.5657 6.87482C72.9539 6.71384 73.2428 6.47236 73.4322 6.15039C73.6263 5.82842 73.7233 5.42833 73.7233 4.95011C73.7233 4.46715 73.6263 4.05995 73.4322 3.72852C73.2428 3.39708 72.9516 3.14613 72.5586 2.97567C72.1703 2.80049 71.6803 2.71289 71.0884 2.71289H69.0145V14.7441H65.9393ZM73.7944 8.12482L77.4094 14.7441H74.0145L70.4776 8.12482H73.7944ZM79.0643 14.7441V0.198686H82.1395V6.61204H82.3313L87.5657 0.198686H91.2518L85.854 6.71147L91.3157 14.7441H87.6367L83.6523 8.76403L82.1395 10.6106V14.7441H79.0643ZM92.8533 14.7441V0.198686H102.654V2.7342H95.9286V6.20011H102.15V8.73562H95.9286V12.2086H102.683V14.7441H92.8533ZM105.099 14.7441V0.198686H110.838C111.937 0.198686 112.874 0.395182 113.651 0.788174C114.432 1.17643 115.026 1.72804 115.433 2.443C115.845 3.15323 116.051 3.98893 116.051 4.95011C116.051 5.91602 115.843 6.74698 115.426 7.443C115.009 8.13429 114.406 8.66459 113.615 9.03391C112.829 9.40323 111.877 9.58789 110.76 9.58789H106.918V7.1163H110.263C110.85 7.1163 111.338 7.03581 111.726 6.87482C112.114 6.71384 112.403 6.47236 112.592 6.15039C112.786 5.82842 112.884 5.42833 112.884 4.95011C112.884 4.46715 112.786 4.05995 112.592 3.72852C112.403 3.39708 112.112 3.14613 111.719 2.97567C111.33 2.80049 110.84 2.71289 110.249 2.71289H108.175V14.7441H105.099ZM112.955 8.12482L116.57 14.7441H113.175L109.638 8.12482H112.955ZM126.115 4.38192C126.058 3.80901 125.814 3.36393 125.384 3.0467C124.953 2.72946 124.368 2.57084 123.629 2.57084C123.127 2.57084 122.704 2.64187 122.358 2.78391C122.012 2.92122 121.747 3.11299 121.562 3.3592C121.383 3.60541 121.293 3.88477 121.293 4.19727C121.283 4.45768 121.338 4.68496 121.456 4.87908C121.579 5.07321 121.747 5.2413 121.96 5.38335C122.173 5.52066 122.419 5.64139 122.699 5.74556C122.978 5.84499 123.276 5.93022 123.594 6.00124L124.901 6.31374C125.535 6.45579 126.117 6.64518 126.648 6.88192C127.178 7.11867 127.637 7.40986 128.026 7.7555C128.414 8.10115 128.714 8.50835 128.928 8.9771C129.145 9.44585 129.257 9.98325 129.261 10.5893C129.257 11.4795 129.029 12.2512 128.58 12.9047C128.134 13.5533 127.491 14.0576 126.648 14.4174C125.81 14.7725 124.799 14.9501 123.615 14.9501C122.441 14.9501 121.418 14.7702 120.547 14.4103C119.68 14.0505 119.003 13.5178 118.516 12.8123C118.033 12.1021 117.779 11.2238 117.756 10.1774H120.732C120.765 10.6651 120.904 11.0723 121.151 11.399C121.401 11.7209 121.735 11.9648 122.152 12.1305C122.573 12.2915 123.049 12.372 123.58 12.372C124.1 12.372 124.553 12.2962 124.936 12.1447C125.324 11.9932 125.625 11.7825 125.838 11.5126C126.051 11.2427 126.158 10.9326 126.158 10.5822C126.158 10.2555 126.061 9.98088 125.866 9.75835C125.677 9.53581 125.398 9.34641 125.028 9.19016C124.664 9.03391 124.216 8.89187 123.686 8.76403L122.102 8.3663C120.876 8.068 119.908 7.60162 119.197 6.96715C118.487 6.33268 118.134 5.47804 118.139 4.40323C118.134 3.52255 118.369 2.75314 118.842 2.09499C119.321 1.43685 119.976 0.923118 120.81 0.553799C121.643 0.184481 122.59 -0.000178099 123.651 -0.000178099C124.73 -0.000178099 125.672 0.184481 126.477 0.553799C127.287 0.923118 127.917 1.43685 128.366 2.09499C128.816 2.75314 129.048 3.51545 129.062 4.38192H126.115Z" fill="currentColor"/>
</svg>
