<svg width="40" height="40" viewBox="0 0 40 40" fill="none" xmlns="http://www.w3.org/2000/svg">
<path d="M24.333 6.66504C28.0667 6.66504 29.9343 6.66498 31.3604 7.3916C32.6145 8.03072 33.6343 9.05051 34.2734 10.3047C35.0001 11.7308 35 13.5983 35 17.332V19.332C35 23.0655 35 24.9324 34.2734 26.3584C33.6344 27.6126 32.6145 28.6323 31.3604 29.2715C29.9343 29.9981 28.0667 29.998 24.333 29.998H12.3574C11.9154 29.998 11.4913 30.1738 11.1787 30.4863L7.84473 33.8203C6.79478 34.8695 5.0002 34.1261 5 32.6416V17.332C5 13.5983 4.99994 11.7308 5.72656 10.3047C6.36568 9.05051 7.38548 8.03072 8.63965 7.3916C10.0657 6.66498 11.9333 6.66504 15.667 6.66504H24.333ZM15 19.999C14.0795 19.999 13.333 20.7455 13.333 21.666C13.3333 22.5862 14.0797 23.332 15 23.332H20L20.1699 23.3242C21.0104 23.2391 21.6667 22.5289 21.667 21.666C21.667 20.8029 21.0106 20.093 20.1699 20.0078L20 19.999H15ZM15 13.332C14.0795 13.332 13.333 14.0785 13.333 14.999C13.3331 15.9194 14.0796 16.666 15 16.666H25L25.1699 16.6572C26.0105 16.5721 26.6669 15.862 26.667 14.999C26.667 14.1359 26.0106 13.426 25.1699 13.3408L25 13.332H15Z" fill="url(#paint0_linear_24375_5582)"/>
<defs>
<linearGradient id="paint0_linear_24375_5582" x1="5" y1="20.4882" x2="35" y2="20.4882" gradientUnits="userSpaceOnUse">
<stop stop-color="#74A1FB"/>
<stop offset="1" stop-color="#C9DAFD"/>
</linearGradient>
</defs>
</svg>
