<svg width="48" height="48" viewBox="0 0 48 48" fill="none" xmlns="http://www.w3.org/2000/svg">
<path d="M20.2511 10.2477C23.0125 5.46481 29.1288 3.82594 33.9117 6.58737C38.6943 9.3488 40.3327 15.4634 37.5716 20.2462L37.5683 20.2491C42.3504 23.0107 43.989 29.1253 41.2282 33.9079C38.467 38.6905 32.3522 40.3284 27.5694 37.5677C24.8077 42.3495 18.6949 43.988 13.9125 41.2271C9.13042 38.4661 7.4895 32.3518 10.2489 27.5693L10.2465 27.5679C5.46438 24.8064 3.8259 18.6917 6.58661 13.9091C9.34803 9.12619 15.4644 7.48732 20.2473 10.2487L20.2511 10.2477Z" fill="url(#paint0_linear_24375_5605)"/>
<defs>
<linearGradient id="paint0_linear_24375_5605" x1="12.0612" y1="38.5087" x2="38.1724" y2="31.5122" gradientUnits="userSpaceOnUse">
<stop stop-color="#A7C2FC"/>
<stop offset="1" stop-color="#C9DAFD"/>
</linearGradient>
</defs>
</svg>
