<svg width="16" height="16" viewBox="0 0 16 16" fill="none" xmlns="http://www.w3.org/2000/svg">
<g clip-path="url(#clip0_27339_7127)">
<path d="M6.57031 2.44873C7.45938 1.68381 8.77402 1.68381 9.66309 2.44873C10.0471 2.77914 10.527 2.9782 11.0322 3.01611C12.2017 3.10394 13.1309 4.03318 13.2188 5.20264C13.2567 5.70783 13.4557 6.18774 13.7861 6.57178C14.5511 7.46084 14.5511 8.77548 13.7861 9.66455C13.4557 10.0486 13.2567 10.5285 13.2188 11.0337C13.1309 12.2032 12.2017 13.1324 11.0322 13.2202C10.527 13.2581 10.0471 13.4572 9.66309 13.7876C8.77402 14.5525 7.45938 14.5525 6.57031 13.7876C6.18628 13.4572 5.70636 13.2581 5.20117 13.2202C4.03172 13.1324 3.10247 12.2031 3.01465 11.0337C2.97673 10.5285 2.77768 10.0486 2.44727 9.66455C1.68235 8.77548 1.68234 7.46084 2.44727 6.57178C2.77768 6.18774 2.97673 5.70783 3.01465 5.20264C3.10248 4.03319 4.03172 3.10395 5.20117 3.01611C5.70636 2.9782 6.18628 2.77914 6.57031 2.44873ZM11.1807 5.88037C10.9113 5.63796 10.4963 5.65982 10.2539 5.9292L7.52637 8.95947L5.91211 7.61377C5.63369 7.38176 5.21934 7.41936 4.9873 7.69775C4.7553 7.97616 4.79292 8.39052 5.07129 8.62256L7.04199 10.2642C7.38521 10.5502 7.89351 10.5142 8.19238 10.1821L11.2295 6.80713C11.4719 6.53773 11.4501 6.12282 11.1807 5.88037Z" fill="#74A1FB"/>
</g>
<defs>
<clipPath id="clip0_27339_7127">
<rect width="14" height="14" fill="white" transform="translate(1 1)"/>
</clipPath>
</defs>
</svg>
