<svg width="40" height="40" viewBox="0 0 40 40" fill="none" xmlns="http://www.w3.org/2000/svg">
<path d="M7.67515 24.3502C8.98624 31.3798 15.7477 36.0157 22.7774 34.7046C29.807 33.3935 34.4428 26.632 33.1317 19.6023C31.8207 12.5727 25.0592 7.93687 18.0295 9.24796C10.9999 10.559 6.36406 17.3206 7.67515 24.3502Z" fill="#F5C2D0"/>
<ellipse cx="1.21199" cy="1.16438" rx="1.21199" ry="1.16438" transform="matrix(9.68485e-09 -1 -1 -9.68485e-09 17.3984 24.4458)" fill="#334155"/>
<ellipse cx="1.22" cy="1.165" rx="1.22" ry="1.165" transform="matrix(-4.91277e-08 1 1 4.91277e-08 23.0625 21.9414)" fill="#334155"/>
<circle cx="3.23695" cy="3.23695" r="3.23695" transform="matrix(-0.983048 0.183347 0.183347 0.983048 10.2891 19.7026)" fill="#F5C2D0"/>
<circle cx="3.23695" cy="3.23695" r="3.23695" transform="matrix(-0.983048 0.183347 0.183347 0.983048 35.8047 19.7026)" fill="#F5C2D0"/>
<path fill-rule="evenodd" clip-rule="evenodd" d="M7.43837 18.7109C9.37149 20.0413 11.8131 20.5944 14.2599 20.045C16.7441 19.4871 18.7377 17.9041 19.9097 15.8289C21.7822 19.1293 25.6027 20.9743 29.4357 20.1136C30.8135 19.8042 32.0404 19.1795 33.0599 18.3303C33.0215 18.1081 32.9774 17.8856 32.9274 17.663C31.3322 10.5591 24.383 6.07037 17.4059 7.63709C11.9655 8.85872 8.11464 13.4013 7.43837 18.7109Z" fill="#1E293B"/>
<path fill-rule="evenodd" clip-rule="evenodd" d="M29.7171 11.4665L10.8445 11.2879C11.2913 7.63757 15.3858 4.80704 20.3425 4.85395C25.2993 4.90085 29.3395 7.80837 29.7171 11.4665Z" fill="#FACC15"/>
<rect x="7.69531" y="11.2583" width="25.1647" height="3.14559" rx="1.04853" transform="rotate(0.542194 7.69531 11.2583)" fill="#FACC15"/>
<path d="M17.1734 7.15472C17.1898 5.41754 18.6114 4.0226 20.3486 4.03904C22.0857 4.05548 23.4807 5.47707 23.4642 7.21425L23.4246 11.4082L17.1337 11.3486L17.1734 7.15472Z" fill="#EAB308"/>
</svg>
