<svg width="18" height="18" viewBox="0 0 18 18" fill="none" xmlns="http://www.w3.org/2000/svg">
<path d="M8.5376 1.46387C10.4901 -0.488339 13.6554 -0.488327 15.6079 1.46387C17.5605 3.41649 17.5605 6.58254 15.6079 8.53516L15.606 8.53613C17.5581 10.4888 17.5584 13.654 15.606 15.6064C13.6536 17.5586 10.4883 17.5591 8.53564 15.6074C6.58297 17.5586 3.41848 17.5584 1.46631 15.6064C-0.486016 13.6541 -0.486398 10.4888 1.46533 8.53613L1.46436 8.53516C-0.488266 6.58254 -0.488266 3.41649 1.46436 1.46387C3.41691 -0.488308 6.58214 -0.488358 8.53467 1.46387L8.53564 1.46484L8.5376 1.46387Z" fill="#5189FA"/>
</svg>
